<svg viewBox="0 0 905 297" fill="none" xmlns="http://www.w3.org/2000/svg">
  <style>
    #letterB { fill: #0a0a0f; }
    @media (prefers-color-scheme: dark) {
      #letterB { fill: #ffffff; }
    }
  </style>
  <defs>
    <linearGradient id="logoAccent" x1="0" y1="0" x2="0" y2="1">
      <stop offset="0%" stop-color="#10b981" />
      <stop offset="100%" stop-color="#065f46" />
    </linearGradient>
  </defs>

  <ellipse id="dot" cx="24" cy="271.981" rx="24" ry="25" fill="url(#logoAccent)" />

  <path
    id="letterA"
    fill="url(#logoAccent)"
    d="M66 295.981L241 0.981049L415.5 295.981H364L241 89.981L118.099 295.981H66Z"
  />

  <path
    id="code"
    fill="url(#logoAccent)"
    d="
      M216 223.981V233.981L187 247.481L216 261.981V270.981L177 252.981V242.981L216 223.981Z
      M223 284.981L249 209.981H258L232 284.981H223Z
      M304 242.981V251.981L265 270.981V261.981L294 247.481L265 233.981V223.981L304 242.981Z
    "
  />

  <path
    id="letterB"
    d="M333 52.9813L309 10.9813H530C589 20.4811 615.227 73.4014 590 131.981L592 133.981C664.94 141.876 682.522 284.967 581.929 294.981H465L441 253.981H536H561.5C636.36 251.471 623.268 172.536 561.5 174.981H511.5H400L376 132.981H400.5H511.5C570.5 132.981 575.079 52.5646 511.5 52.9813C447.921 53.3979 333 52.9813 333 52.9813Z"
  />

  <path
    id="letterM"
    fill="url(#logoAccent)"
    d="M634 15.981V82.981L769 219.981L857 131.981V295.981H904V15.981L769 150.981L634 15.981Z"
  />
</svg>
